{"title":"Arrow S04E06 Lost Souls 1080P WEB-DL DD5 1 H 264","uid":12757387,"size":1756225041,"categoryP":"video","categoryS":"hd___tv_shows","magnet":"?xt=urn:btih:ac17a4c000b41b9ffac37e1beab685948276f140&amp;dn=Arrow+S04E06+Lost+Souls+1080P+WEB-DL+DD5+1+H+264&amp;tr=udp%3A%2F%2Ftracker.leechers-paradise.org%3A6969&amp;tr=udp%3A%2F%2Fzer0day.ch%3A1337&amp;tr=udp%3A%2F%2Fopen.demonii.com%3A1337&amp;tr=udp%3A%2F%2Ftracker.coppersurfer.tk%3A6969&amp;tr=udp%3A%2F%2Fexodus.desync.com%3A6969","seeders":1,"leechers":0,"uploader":"jmanwf","files":2,"time":1447467253,"description":"Felicity is frantic when she learns that Ray Palmer (guest star Brandon Routh) is alive and being held by Damien Darhk. Felicity's guilt over not finding Ray sooner causes tension between her and Oliver. Meanwhile, Sara joins Laurel, Thea and the team on a rescue mission for Ray. However, the effects of the Lazarus Pit take over and threaten to jeopardize the entire operation. And Felicity's mother, Donna (recurring guest star Charlotte Ross) returns to Star City.\r\n\r\n\r\nVideo\r\nID : 2\r\nFormat : AVC\r\nFormat/Info : Advanced Video Codec\r\nFormat profile :   \r\nFormat settings, CABAC : Yes\r\nFormat settings, ReFrames : 4 frames\r\nCodec ID : avc1\r\nCodec ID/Info : Advanced Video Coding\r\nDuration : 42mn 28s\r\nBit rate : 4 999 Kbps\r\nWidth : 1 916 pixels\r\nHeight : 1 076 pixels\r\nDisplay aspect ratio : 16:9\r\nFrame rate mode : Constant\r\nFrame rate : 23.976 fps\r\nColor space : YUV\r\nChroma subsampling : 4:2:0\r\nBit depth : 8 bits\r\nScan type : Progressive\r\nBits/(Pixel*Frame) : 0.101\r\nStream size : 1.48 GiB (91%)\r\nLanguage : English\r\nEncoded date : UTC 2015-11-13 00:07:29\r\nTagged date : UTC 2015-11-13 00:12:44\r\nColor range : Limited\r\nColor primaries : BT.709\r\nTransfer characteristics : BT.709\r\nMatrix coefficients : BT.709\r\n\r\nAudio #1\r\nID : 1\r\nFormat : AAC\r\nFormat/Info : Advanced Audio Codec\r\nFormat profile : LC\r\nCodec ID : 40\r\nDuration : 42mn 28s\r\nBit rate mode : Variable\r\nBit rate : 125 Kbps\r\nMaximum bit rate : 205 Kbps\r\nChannel(s) : 2 channels\r\nChannel positions : Front: L R\r\nSampling rate : 48.0 KHz\r\nCompression mode : Lossy\r\nStream size : 37.9 MiB (2%)\r\nLanguage : English\r\nEncoded date : UTC 2015-11-13 00:07:29\r\nTagged date : UTC 2015-11-13 00:12:44\r\n\r\nAudio #2\r\nID : 3\r\nFormat : AC-3\r\nFormat/Info : Audio Coding 3\r\nMode extension : CM (complete main)\r\nFormat settings, Endianness : Big\r\nCodec ID : ac-3\r\nDuration : 42mn 28s\r\nBit rate mode : Constant\r\nBit rate : 384 Kbps\r\nChannel(s) : 6 channels\r\nChannel positions : Front: L C R, Side: L R, LFE\r\nSampling rate : 48.0 KHz\r\nBit depth : 16 bits\r\nCompression mode : Lossy\r\nStream size : 117 MiB (7%)\r\nLanguage : English\r\nEncoded date : UTC 2015-11-13 00:07:29\r\nTagged date : UTC 2015-11-13 00:12:44\r\n\r\nText\r\nID : 4-CC1\r\nFormat : EIA-608\r\nMuxing mode : Final Cut\r\nCodec ID : c608\r\nDuration : 42mn 24s\r\nBit rate mode : Constant\r\nStream size : 0.00 Byte (0%)\r\nLanguage : English\r\nEncoded date : UTC 2015-11-13 00:07:29\r\nTagged date : UTC 2015-11-13 00:07:47","torrent":{"xt":"urn:btih:ac17a4c000b41b9ffac37e1beab685948276f140","amp;dn":"Arrow+S04E06+Lost+Souls+1080P+WEB-DL+DD5+1+H+264","amp;tr":["udp%3A%2F%2Ftracker.leechers-paradise.org%3A6969","udp%3A%2F%2Fzer0day.ch%3A1337","udp%3A%2F%2Fopen.demonii.com%3A1337","udp%3A%2F%2Ftracker.coppersurfer.tk%3A6969","udp%3A%2F%2Fexodus.desync.com%3A6969"],"infoHash":"ac17a4c000b41b9ffac37e1beab685948276f140","infoHashBuffer":{"type":"Buffer","data":[172,23,164,192,0,180,27,159,250,195,126,27,234,182,133,148,130,118,241,64]},"announce":[],"urlList":[]}}